<?xml version="1.0" encoding="utf-8"?>
<svg xmlns="http://www.w3.org/2000/svg" xmlns:xlink="http://www.w3.org/1999/xlink" width="600" height="400" viewBox="0 0 2400 1600">
<defs>
  <clipPath id="clip970">
    <rect x="0" y="0" width="2400" height="1600"/>
  </clipPath>
</defs>
<path clip-path="url(#clip970)" d="M0 1600 L2400 1600 L2400 0 L0 0  Z" fill="#ffffff" fill-rule="evenodd" fill-opacity="1"/>
<defs>
  <clipPath id="clip971">
    <rect x="480" y="0" width="1681" height="1600"/>
  </clipPath>
</defs>
<path clip-path="url(#clip970)" d="M237.815 1408.85 L2352.76 1408.85 L2352.76 180.358 L237.815 180.358  Z" fill="#ffffff" fill-rule="evenodd" fill-opacity="1"/>
<defs>
  <clipPath id="clip972">
    <rect x="237" y="180" width="2116" height="1229"/>
  </clipPath>
</defs>
<polyline clip-path="url(#clip970)" style="stroke:#000000; stroke-linecap:round; stroke-linejoin:round; stroke-width:4; stroke-opacity:1; fill:none" points="237.815,1408.85 2352.76,1408.85 "/>
<polyline clip-path="url(#clip970)" style="stroke:#000000; stroke-linecap:round; stroke-linejoin:round; stroke-width:4; stroke-opacity:1; fill:none" points="616.17,1408.85 616.17,1389.95 "/>
<polyline clip-path="url(#clip970)" style="stroke:#000000; stroke-linecap:round; stroke-linejoin:round; stroke-width:4; stroke-opacity:1; fill:none" points="1137.47,1408.85 1137.47,1389.95 "/>
<polyline clip-path="url(#clip970)" style="stroke:#000000; stroke-linecap:round; stroke-linejoin:round; stroke-width:4; stroke-opacity:1; fill:none" points="1658.76,1408.85 1658.76,1389.95 "/>
<polyline clip-path="url(#clip970)" style="stroke:#000000; stroke-linecap:round; stroke-linejoin:round; stroke-width:4; stroke-opacity:1; fill:none" points="2180.06,1408.85 2180.06,1389.95 "/>
<g clip-path="url(#clip970)">
<text style="fill:#000000; fill-opacity:1; font-family:Arial,Helvetica Neue,Helvetica,sans-serif; font-size:48px; text-anchor:middle;" transform="rotate(0, 616.17, 1470.7)" x="616.17" y="1470.7">−1</text>
</g>
<g clip-path="url(#clip970)">
<text style="fill:#000000; fill-opacity:1; font-family:Arial,Helvetica Neue,Helvetica,sans-serif; font-size:48px; text-anchor:middle;" transform="rotate(0, 1137.47, 1470.7)" x="1137.47" y="1470.7">0</text>
</g>
<g clip-path="url(#clip970)">
<text style="fill:#000000; fill-opacity:1; font-family:Arial,Helvetica Neue,Helvetica,sans-serif; font-size:48px; text-anchor:middle;" transform="rotate(0, 1658.76, 1470.7)" x="1658.76" y="1470.7">1</text>
</g>
<g clip-path="url(#clip970)">
<text style="fill:#000000; fill-opacity:1; font-family:Arial,Helvetica Neue,Helvetica,sans-serif; font-size:48px; text-anchor:middle;" transform="rotate(0, 2180.06, 1470.7)" x="2180.06" y="1470.7">2</text>
</g>
<g clip-path="url(#clip970)">
<text style="fill:#000000; fill-opacity:1; font-family:Arial,Helvetica Neue,Helvetica,sans-serif; font-size:89px; text-anchor:middle;" transform="rotate(0, 1295.29, 1576.46)" x="1295.29" y="1576.46">Effect Size</text>
</g>
<polyline clip-path="url(#clip970)" style="stroke:#ffffff; stroke-linecap:round; stroke-linejoin:round; stroke-width:4; stroke-opacity:1; fill:none" points="237.815,1408.85 237.815,180.358 "/>
<polyline clip-path="url(#clip970)" style="stroke:#ffffff; stroke-linecap:round; stroke-linejoin:round; stroke-width:4; stroke-opacity:1; fill:none" points="237.815,1250.34 256.713,1250.34 "/>
<polyline clip-path="url(#clip970)" style="stroke:#ffffff; stroke-linecap:round; stroke-linejoin:round; stroke-width:4; stroke-opacity:1; fill:none" points="237.815,1091.82 256.713,1091.82 "/>
<polyline clip-path="url(#clip970)" style="stroke:#ffffff; stroke-linecap:round; stroke-linejoin:round; stroke-width:4; stroke-opacity:1; fill:none" points="237.815,933.306 256.713,933.306 "/>
<polyline clip-path="url(#clip970)" style="stroke:#ffffff; stroke-linecap:round; stroke-linejoin:round; stroke-width:4; stroke-opacity:1; fill:none" points="237.815,774.791 256.713,774.791 "/>
<polyline clip-path="url(#clip970)" style="stroke:#ffffff; stroke-linecap:round; stroke-linejoin:round; stroke-width:4; stroke-opacity:1; fill:none" points="237.815,616.275 256.713,616.275 "/>
<polyline clip-path="url(#clip970)" style="stroke:#ffffff; stroke-linecap:round; stroke-linejoin:round; stroke-width:4; stroke-opacity:1; fill:none" points="237.815,457.76 256.713,457.76 "/>
<polyline clip-path="url(#clip970)" style="stroke:#ffffff; stroke-linecap:round; stroke-linejoin:round; stroke-width:4; stroke-opacity:1; fill:none" points="237.815,299.245 256.713,299.245 "/>
<g clip-path="url(#clip970)">
<text style="fill:#000000; fill-opacity:1; font-family:Arial,Helvetica Neue,Helvetica,sans-serif; font-size:48px; text-anchor:middle;" transform="rotate(0, 168.387, 1267.84)" x="168.387" y="1267.84">NA</text>
</g>
<g clip-path="url(#clip970)">
<text style="fill:#000000; fill-opacity:1; font-family:Arial,Helvetica Neue,Helvetica,sans-serif; font-size:48px; text-anchor:middle;" transform="rotate(0, 165.715, 1109.32)" x="165.715" y="1109.32">DO</text>
</g>
<g clip-path="url(#clip970)">
<text style="fill:#000000; fill-opacity:1; font-family:Arial,Helvetica Neue,Helvetica,sans-serif; font-size:48px; text-anchor:middle;" transform="rotate(0, 169.734, 950.806)" x="169.734" y="950.806">ZC</text>
</g>
<g clip-path="url(#clip970)">
<text style="fill:#000000; fill-opacity:1; font-family:Arial,Helvetica Neue,Helvetica,sans-serif; font-size:48px; text-anchor:middle;" transform="rotate(0, 168.387, 792.291)" x="168.387" y="792.291">UX</text>
</g>
<g clip-path="url(#clip970)">
<text style="fill:#000000; fill-opacity:1; font-family:Arial,Helvetica Neue,Helvetica,sans-serif; font-size:48px; text-anchor:middle;" transform="rotate(0, 165.715, 633.775)" x="165.715" y="633.775">MK</text>
</g>
<g clip-path="url(#clip970)">
<text style="fill:#000000; fill-opacity:1; font-family:Arial,Helvetica Neue,Helvetica,sans-serif; font-size:48px; text-anchor:middle;" transform="rotate(0, 167.039, 475.26)" x="167.039" y="475.26">XQ</text>
</g>
<g clip-path="url(#clip970)">
<text style="fill:#000000; fill-opacity:1; font-family:Arial,Helvetica Neue,Helvetica,sans-serif; font-size:48px; text-anchor:middle;" transform="rotate(0, 168.387, 316.745)" x="168.387" y="316.745">YN</text>
</g>
<g clip-path="url(#clip970)">
<text style="fill:#000000; fill-opacity:1; font-family:Arial,Helvetica Neue,Helvetica,sans-serif; font-size:89px; text-anchor:middle;" transform="rotate(-90, 77.3028, 794.605)" x="77.3028" y="794.605">Variables</text>
</g>
<g clip-path="url(#clip970)">
<text style="fill:#000000; fill-opacity:1; font-family:Arial,Helvetica Neue,Helvetica,sans-serif; font-size:84px; text-anchor:start;" transform="rotate(0, 997.982, 92.1172)" x="997.982" y="92.1172">Confidence Plot</text>
</g>
<polyline clip-path="url(#clip972)" style="stroke:#000000; stroke-linecap:round; stroke-linejoin:round; stroke-width:4; stroke-opacity:1; fill:none" points="2135.3,1250.34 2292.9,1250.34 "/>
<polyline clip-path="url(#clip972)" style="stroke:#000000; stroke-linecap:round; stroke-linejoin:round; stroke-width:4; stroke-opacity:1; fill:none" points="1107.91,1091.82 1224.67,1091.82 "/>
<polyline clip-path="url(#clip972)" style="stroke:#000000; stroke-linecap:round; stroke-linejoin:round; stroke-width:4; stroke-opacity:1; fill:none" points="814.944,933.306 986.493,933.306 "/>
<polyline clip-path="url(#clip972)" style="stroke:#000000; stroke-linecap:round; stroke-linejoin:round; stroke-width:4; stroke-opacity:1; fill:none" points="987.844,774.791 1200.37,774.791 "/>
<polyline clip-path="url(#clip972)" style="stroke:#000000; stroke-linecap:round; stroke-linejoin:round; stroke-width:4; stroke-opacity:1; fill:none" points="297.672,616.275 556.069,616.275 "/>
<polyline clip-path="url(#clip972)" style="stroke:#000000; stroke-linecap:round; stroke-linejoin:round; stroke-width:4; stroke-opacity:1; fill:none" points="1184.34,457.76 1391.14,457.76 "/>
<polyline clip-path="url(#clip972)" style="stroke:#000000; stroke-linecap:round; stroke-linejoin:round; stroke-width:4; stroke-opacity:1; fill:none" points="1369.58,299.245 1477.2,299.245 "/>
<line clip-path="url(#clip972)" x1="2135.3" y1="1266.34" x2="2135.3" y2="1234.34" style="stroke:#000000; stroke-width:4; stroke-opacity:1"/>
<line clip-path="url(#clip972)" x1="2292.9" y1="1266.34" x2="2292.9" y2="1234.34" style="stroke:#000000; stroke-width:4; stroke-opacity:1"/>
<line clip-path="url(#clip972)" x1="1107.91" y1="1107.82" x2="1107.91" y2="1075.82" style="stroke:#000000; stroke-width:4; stroke-opacity:1"/>
<line clip-path="url(#clip972)" x1="1224.67" y1="1107.82" x2="1224.67" y2="1075.82" style="stroke:#000000; stroke-width:4; stroke-opacity:1"/>
<line clip-path="url(#clip972)" x1="814.944" y1="949.306" x2="814.944" y2="917.306" style="stroke:#000000; stroke-width:4; stroke-opacity:1"/>
<line clip-path="url(#clip972)" x1="986.493" y1="949.306" x2="986.493" y2="917.306" style="stroke:#000000; stroke-width:4; stroke-opacity:1"/>
<line clip-path="url(#clip972)" x1="987.844" y1="790.791" x2="987.844" y2="758.791" style="stroke:#000000; stroke-width:4; stroke-opacity:1"/>
<line clip-path="url(#clip972)" x1="1200.37" y1="790.791" x2="1200.37" y2="758.791" style="stroke:#000000; stroke-width:4; stroke-opacity:1"/>
<line clip-path="url(#clip972)" x1="297.672" y1="632.275" x2="297.672" y2="600.275" style="stroke:#000000; stroke-width:4; stroke-opacity:1"/>
<line clip-path="url(#clip972)" x1="556.069" y1="632.275" x2="556.069" y2="600.275" style="stroke:#000000; stroke-width:4; stroke-opacity:1"/>
<line clip-path="url(#clip972)" x1="1184.34" y1="473.76" x2="1184.34" y2="441.76" style="stroke:#000000; stroke-width:4; stroke-opacity:1"/>
<line clip-path="url(#clip972)" x1="1391.14" y1="473.76" x2="1391.14" y2="441.76" style="stroke:#000000; stroke-width:4; stroke-opacity:1"/>
<line clip-path="url(#clip972)" x1="1369.58" y1="315.245" x2="1369.58" y2="283.245" style="stroke:#000000; stroke-width:4; stroke-opacity:1"/>
<line clip-path="url(#clip972)" x1="1477.2" y1="315.245" x2="1477.2" y2="283.245" style="stroke:#000000; stroke-width:4; stroke-opacity:1"/>
<path clip-path="url(#clip972)" d="M2198.1 1234.34 L2198.1 1266.34 L2230.1 1266.34 L2230.1 1234.34 L2198.1 1234.34 Z" fill="#3082bc" fill-rule="evenodd" fill-opacity="1" stroke="#000000" stroke-opacity="1" stroke-width="3.2"/>
<path clip-path="url(#clip972)" d="M1150.29 1075.82 L1150.29 1107.82 L1182.29 1107.82 L1182.29 1075.82 L1150.29 1075.82 Z" fill="#deebf7" fill-rule="evenodd" fill-opacity="1" stroke="#000000" stroke-opacity="1" stroke-width="3.2"/>
<path clip-path="url(#clip972)" d="M884.719 917.306 L884.719 949.306 L916.719 949.306 L916.719 917.306 L884.719 917.306 Z" fill="#3082bc" fill-rule="evenodd" fill-opacity="1" stroke="#000000" stroke-opacity="1" stroke-width="3.2"/>
<path clip-path="url(#clip972)" d="M1078.11 758.791 L1078.11 790.791 L1110.11 790.791 L1110.11 758.791 L1078.11 758.791 Z" fill="#deebf7" fill-rule="evenodd" fill-opacity="1" stroke="#000000" stroke-opacity="1" stroke-width="3.2"/>
<path clip-path="url(#clip972)" d="M410.871 600.275 L410.871 632.275 L442.871 632.275 L442.871 600.275 L410.871 600.275 Z" fill="#3082bc" fill-rule="evenodd" fill-opacity="1" stroke="#000000" stroke-opacity="1" stroke-width="3.2"/>
<path clip-path="url(#clip972)" d="M1271.74 441.76 L1271.74 473.76 L1303.74 473.76 L1303.74 441.76 L1271.74 441.76 Z" fill="#3082bc" fill-rule="evenodd" fill-opacity="1" stroke="#000000" stroke-opacity="1" stroke-width="3.2"/>
<path clip-path="url(#clip972)" d="M1407.39 283.245 L1407.39 315.245 L1439.39 315.245 L1439.39 283.245 L1407.39 283.245 Z" fill="#3082bc" fill-rule="evenodd" fill-opacity="1" stroke="#000000" stroke-opacity="1" stroke-width="3.2"/>
<polyline clip-path="url(#clip972)" style="stroke:#ff0000; stroke-linecap:round; stroke-linejoin:round; stroke-width:4; stroke-opacity:0.5; fill:none" points="1137.47,2637.35 1137.47,-1048.14 "/>
</svg>
